<?xml version="1.0" encoding="UTF-8"?>
<svg width="16px" height="16px" viewBox="0 0 16 16" version="1.1" xmlns="http://www.w3.org/2000/svg" xmlns:xlink="http://www.w3.org/1999/xlink">
    <title>eye-close</title>
    <g id="eye-close" stroke="none" stroke-width="1" fill="none" fill-rule="evenodd">
        <g id="icon/eye" fill="#484848">
            <path d="M15.849759,12.7746399 L0.900218016,1.08774879 C0.817406718,1.02144668 0.711648741,0.990756806 0.606209643,1.00243059 C0.500770546,1.01410437 0.404287355,1.06718555 0.33798528,1.14999688 L0.0879929571,1.46223729 C0.0215338171,1.54507886 -0.00925061097,1.65095036 0.00242631854,1.75651168 C0.014103248,1.862073 0.0672827571,1.95865662 0.150241046,2.02497001 L15.099782,13.7118611 C15.1825933,13.7781632 15.2883513,13.8088531 15.3937904,13.7971793 C15.4992295,13.7855056 15.5957126,13.7324244 15.6620147,13.649613 L15.912007,13.3373726 C15.9784662,13.2545311 16.0092506,13.1486596 15.9975737,13.0430982 C15.9858968,12.9375369 15.9327172,12.8409533 15.849759,12.7746399 Z M7.41976782,4.66163904 L10.7894143,7.29605815 C10.733916,5.79760416 9.51195357,4.59989094 8,4.59989094 C7.80496911,4.60025616 7.61050754,4.62095069 7.41976782,4.66163904 Z M8.58023218,10.1382209 L5.21058566,7.50380177 C5.26633394,9.00200576 6.48829642,10.199719 8,10.199719 C8.19501498,10.1993025 8.38946267,10.1786932 8.58023218,10.1382209 L8.58023218,10.1382209 Z M8,3.7999155 C10.4661743,3.7999155 12.7271048,5.17487328 13.9480674,7.39980496 C13.6487725,7.9473811 13.2789645,8.45334569 12.8481011,8.90475875 L13.7915722,9.6422361 C14.3168519,9.08030197 14.7618881,8.44841788 15.1140315,7.76454376 C15.2300098,7.53512585 15.2300098,7.26423408 15.1140315,7.03481617 C13.7570732,4.38964739 11.0731556,2.59995235 8,2.59995235 C7.08252817,2.59995235 6.20730505,2.77494698 5.38433032,3.07018791 L6.54454469,3.97741005 C7.01803015,3.86991335 7.50301526,3.7999155 8,3.7999155 Z M8,10.9996944 C5.53382573,10.9996944 3.27314515,9.62473664 2.05193265,7.39980496 C2.35161864,6.85223515 2.72185006,6.34635027 3.15314883,5.89510117 L2.20967781,5.15762381 C1.68448019,5.71947653 1.23952686,6.35127828 0.887468407,7.03506616 C0.771490197,7.26448407 0.771490197,7.53537585 0.887468407,7.76479375 C2.24317678,10.4099625 4.92709436,12.1996576 8,12.1996576 C8.91747183,12.1996576 9.79269495,12.023413 10.6156697,11.729422 L9.45545531,10.8224499 C8.98196985,10.9296966 8.49723473,10.9996944 8,10.9996944 Z" id="Shape"></path>
        </g>
    </g>
</svg>