<?xml version="1.0" encoding="UTF-8"?>
<svg width="16px" height="16px" viewBox="0 0 16 16" version="1.1" xmlns="http://www.w3.org/2000/svg" xmlns:xlink="http://www.w3.org/1999/xlink">
    <title>eye-open</title>
    <g id="eye-open" stroke="none" stroke-width="1" fill="none" fill-rule="evenodd">
        <g id="icon/eye" fill="#484848">
            <path d="M8,5.22221219 C7.70559036,5.22682808 7.41335972,5.27359995 7.13222057,5.36111559 C7.26226545,5.58981508 7.33150682,5.84803568 7.33333207,6.11111702 C7.33333207,6.97022826 6.6368848,7.66667553 5.77777356,7.66667553 C5.51469222,7.66485028 5.25647162,7.59560891 5.02777213,7.46556403 C4.65773102,8.74891761 5.15040745,10.1250752 6.2508765,10.8819733 C7.35134554,11.6388714 8.81268162,11.6066756 9.87874747,10.8020449 C10.9448133,9.99741431 11.3764028,8.60089355 10.9501991,7.33508264 C10.5239955,6.06927172 9.33563116,5.21819597 8,5.22221219 L8,5.22221219 Z M15.9033483,7.92778713 C14.3969566,4.98861489 11.4147287,3 8,3 C4.58527129,3 1.60221007,4.99000378 0.0966516601,7.92806491 C-0.03221722,8.18298201 -0.03221722,8.48398269 0.0966516601,8.73889979 C1.60304341,11.678072 4.58527129,13.6666869 8,13.6666869 C11.4147287,13.6666869 14.3977899,11.6766831 15.9033483,8.73862201 C16.0322172,8.48370491 16.0322172,8.18270423 15.9033483,7.92778713 Z M8,12.3333511 C5.25971702,12.3333511 2.74749003,10.8055704 1.39082078,8.33333587 C2.74749003,5.86111654 5.25943924,4.33333587 8,4.33333587 C10.7405608,4.33333587 13.25251,5.86111654 14.6091792,8.33333587 C13.2527878,10.8055704 10.7405608,12.3333511 8,12.3333511 Z" id="Shape"></path>
        </g>
    </g>
</svg>